<svg xmlns="http://www.w3.org/2000/svg" width="8.792" height="8.804" viewBox="0 0 8.792 8.804">
  <path id="Path_2" data-name="Path 2" d="M227.121,158.038c-.153-.612.535-.918.918-1.147a.512.512,0,0,0,.229-.612c-.229-.688-.688-1.223-.918-1.835-.076-.153-.153-.229-.306-.229a1.892,1.892,0,0,0-2.065,1.759c-.688,2.982,3.9,7.647,6.959,6.959a2.018,2.018,0,0,0,1.759-2.141.244.244,0,0,0-.229-.229c-.612-.306-1.223-.688-1.835-.918a.6.6,0,0,0-.612.153c-.306.459-.612,1.07-1.147.994a4.662,4.662,0,0,1-2.753-2.753Z" transform="translate(-224.911 -154.196)" fill="#eac041" fill-rule="evenodd"/>
</svg>
